<svg xmlns="http://www.w3.org/2000/svg" viewBox="70 300 190 175" role="img" aria-label="DriveBuddies">
<g>
<path d="M 334.86 452.07 C329.36,453.13 290.92,453.24 289.28,452.20 C288.39,451.63 290.00,446.80 295.28,434.23 L 302.50 417.04 L 339.05 417.00 L 340.02 414.43 C340.56,413.02 341.00,411.67 341.00,411.43 C341.00,411.20 332.92,411.00 323.04,411.00 L 305.08 411.00 L 311.70 395.50 L 334.99 395.23 C354.62,395.00 358.66,395.21 360.65,396.50 C363.63,398.46 363.70,402.13 360.88,408.62 C357.82,415.65 354.49,419.69 350.58,421.11 L 347.17 422.34 L 349.69 424.33 C352.98,426.91 352.50,431.08 347.87,440.48 C344.04,448.25 341.10,450.86 334.86,452.07 ZM 362.75 382.46 C359.80,383.69 354.55,384.00 336.59,384.00 C324.23,384.00 313.89,383.62 313.60,383.17 C313.32,382.71 316.33,374.61 320.29,365.18 L 327.50 348.03 L 337.18 348.01 L 346.85 348.00 L 342.93 357.05 C340.77,362.03 339.00,366.53 339.00,367.05 C339.00,368.18 352.96,368.31 354.72,367.19 C356.08,366.33 365.00,346.50 365.00,344.36 C365.00,343.27 361.66,343.00 348.17,343.00 C338.91,343.00 331.08,342.75 330.78,342.44 C330.47,342.14 331.63,338.55 333.36,334.46 L 336.50 327.03 L 360.25 327.02 C382.68,327.00 384.11,327.11 386.00,329.00 C387.15,330.15 388.00,332.33 388.00,334.13 C388.00,337.30 379.41,359.10 373.47,371.00 C369.80,378.34 368.00,380.27 362.75,382.46 ZM 523.31 450.13 C519.63,452.42 518.70,452.51 496.50,452.79 C483.85,452.96 472.98,452.73 472.34,452.29 C471.52,451.73 473.27,446.55 478.37,434.50 L 485.56 417.50 L 495.22 417.21 L 504.88 416.93 L 500.94 426.14 C498.77,431.21 497.00,435.52 497.00,435.72 C497.00,435.92 500.85,435.95 505.56,435.79 L 514.13 435.50 L 519.04 424.12 C521.74,417.85 523.71,412.34 523.42,411.87 C523.12,411.39 515.26,411.00 505.94,411.00 C496.55,411.00 489.00,410.60 489.00,410.10 C489.00,409.60 490.31,406.12 491.92,402.35 L 494.84 395.50 L 517.76 395.23 C539.71,394.98 540.80,395.05 543.34,397.05 C547.63,400.43 546.95,404.51 538.95,423.48 C530.65,443.15 528.43,446.95 523.31,450.13 ZM 461.50 450.29 C457.80,452.29 455.81,452.48 435.00,452.76 C422.62,452.94 411.93,452.69 411.24,452.22 C410.28,451.58 411.74,447.21 417.24,434.19 L 424.50 417.00 L 433.75 417.00 C438.84,417.00 443.00,417.35 443.00,417.78 C443.00,418.21 441.42,422.30 439.50,426.86 C437.58,431.42 436.00,435.35 436.00,435.58 C436.00,435.81 439.60,436.00 443.99,436.00 C450.52,436.00 452.18,435.68 453.07,434.25 C455.21,430.82 462.74,412.49 462.31,411.75 C462.08,411.34 454.05,411.00 444.48,411.00 L 427.08 411.00 L 433.70 395.50 L 457.25 395.50 C479.00,395.50 480.95,395.65 482.90,397.40 C486.47,400.64 485.57,405.11 477.55,423.84 C468.89,444.10 466.89,447.39 461.50,450.29 ZM 392.84 382.70 C391.66,384.12 375.45,384.61 374.71,383.25 C374.48,382.84 377.56,374.85 381.55,365.50 L 388.81 348.50 L 398.42 348.21 C405.83,347.99 407.96,348.22 407.76,349.21 C407.48,350.60 417.51,351.59 421.54,350.58 C423.46,350.10 426.00,346.33 426.00,343.95 C426.00,343.39 419.07,343.00 408.89,343.00 L 391.78 343.00 L 392.36 340.69 C392.68,339.42 394.08,335.82 395.46,332.69 L 397.97 327.00 L 421.83 327.00 C443.68,327.00 445.83,327.15 447.35,328.83 C449.85,331.60 449.41,334.16 444.44,345.81 C439.68,356.96 436.71,361.05 431.92,363.03 C429.10,364.20 429.07,364.31 428.78,373.86 L 428.50 383.50 L 411.50 383.50 L 411.21 374.20 L 410.92 364.90 L 400.56 365.50 L 397.24 373.45 C395.41,377.82 393.43,381.98 392.84,382.70 ZM 400.67 450.70 C398.11,452.05 394.01,452.43 379.50,452.64 C356.20,452.99 352.00,451.95 352.00,445.81 C352.00,444.19 354.75,436.48 358.11,428.68 C361.47,420.88 365.78,410.68 367.68,406.02 C369.59,401.35 371.62,396.96 372.19,396.27 C373.22,395.03 391.00,394.33 391.00,395.53 C391.00,395.82 387.40,404.58 383.00,415.00 C378.60,425.42 375.00,434.41 375.00,434.97 C375.00,435.59 378.32,436.00 383.40,436.00 L 391.81 436.00 L 400.51 415.50 L 409.22 395.00 L 418.72 395.00 C425.91,395.00 428.09,395.30 427.71,396.25 C421.97,410.58 407.23,444.21 405.78,446.27 C404.72,447.79 402.42,449.78 400.67,450.70 ZM 246.40 399.75 C246.05,402.09 245.43,404.00 245.01,404.00 C242.64,404.00 242.42,399.82 243.33,371.78 C244.08,348.76 244.02,341.73 243.08,340.60 C242.38,339.75 226.91,335.47 206.39,330.44 L 170.92 321.74 L 135.21 330.49 C115.57,335.30 99.13,339.57 98.68,339.99 C98.23,340.40 97.90,350.23 97.96,361.82 C98.06,381.82 97.96,382.95 96.09,383.95 C95.01,384.53 93.91,384.66 93.65,384.24 C93.38,383.81 92.85,371.53 92.45,356.93 L 91.72 330.40 L 129.61 321.10 C150.45,315.98 168.42,311.59 169.54,311.34 C170.67,311.09 187.99,314.97 208.04,319.95 C228.09,324.94 245.51,329.25 246.75,329.53 C248.98,330.03 249.00,330.17 248.99,348.27 C248.97,365.74 247.71,390.77 246.40,399.75 ZM 497.59 383.23 C495.95,384.34 478.21,384.15 477.52,383.02 C476.97,382.13 478.12,355.47 479.58,335.25 L 480.18 327.00 L 499.14 327.00 L 498.47 335.25 C498.10,339.79 497.46,347.10 497.04,351.50 C496.63,355.90 496.35,359.59 496.43,359.70 C496.50,359.81 502.17,352.50 509.03,343.47 L 521.50 327.05 L 532.25 327.02 L 543.00 327.00 L 520.85 354.75 C508.66,370.01 498.20,382.83 497.59,383.23 ZM 658.98 451.91 C651.34,453.55 614.08,453.36 613.43,451.68 C613.15,450.96 614.26,447.25 615.88,443.43 L 618.84 436.50 L 635.67 436.24 C650.06,436.01 652.68,435.73 653.75,434.29 C654.44,433.37 655.00,432.29 655.00,431.88 C655.00,431.48 648.66,431.00 640.91,430.83 C627.51,430.52 626.72,430.38 624.92,428.15 C623.60,426.52 623.21,424.98 623.65,423.15 C624.10,421.26 624.29,419.95 625.00,419.04 C626.60,416.98 630.84,416.99 646.67,417.00 C647.87,417.00 649.14,417.00 650.48,417.00 C673.97,417.00 674.94,417.08 676.32,419.05 C678.16,421.67 677.29,425.75 672.61,436.48 C667.70,447.73 665.19,450.58 658.98,451.91 ZM 604.69 452.21 C602.79,453.42 559.22,453.17 558.47,451.95 C558.11,451.38 561.09,443.28 565.08,433.95 L 572.33 417.00 L 617.89 417.00 L 615.35 422.75 C613.96,425.91 612.35,429.06 611.78,429.75 C611.06,430.63 606.96,431.00 597.88,431.00 C590.72,431.00 585.00,431.41 585.00,431.92 C585.00,432.42 584.73,433.55 584.39,434.42 C583.86,435.81 585.44,436.00 597.89,436.00 C605.66,436.00 612.00,436.41 612.00,436.91 C612.00,438.63 605.87,451.46 604.69,452.21 ZM 573.08 376.65 L 570.16 383.50 L 546.65 383.77 C533.72,383.92 522.93,383.69 522.67,383.27 C522.42,382.85 525.46,374.85 529.45,365.50 L 536.70 348.50 L 559.35 348.23 C571.81,348.08 582.00,348.21 582.00,348.50 C582.00,348.80 580.68,351.96 579.06,355.52 L 576.13 362.00 L 563.22 362.00 C550.57,362.00 550.30,362.05 549.23,364.40 C548.63,365.72 548.40,367.07 548.73,367.40 C549.06,367.73 555.33,368.00 562.67,368.00 C570.00,368.00 576.00,368.41 576.00,368.90 C576.00,369.40 574.69,372.88 573.08,376.65 ZM 550.62 452.23 C549.04,453.27 535.79,453.15 534.10,452.08 C532.97,451.37 534.89,446.00 544.03,424.35 C550.27,409.58 555.79,396.94 556.31,396.25 C557.38,394.81 575.00,394.44 575.00,395.86 C575.00,397.63 551.70,451.53 550.62,452.23 ZM 465.08 355.50 L 453.17 383.50 L 444.29 383.78 C439.40,383.94 435.14,383.81 434.83,383.49 C434.51,383.18 439.55,370.45 446.03,355.21 L 457.82 327.50 L 467.41 327.21 C472.68,327.06 477.00,327.06 477.00,327.21 C476.99,327.37 471.63,340.10 465.08,355.50 ZM 682.85 403.87 L 679.70 411.00 L 654.35 411.00 C636.38,411.00 629.00,410.68 629.00,409.89 C629.00,409.27 630.22,406.54 631.70,403.81 C636.05,395.82 637.02,395.56 663.25,395.17 C677.23,394.96 686.00,395.20 686.00,395.79 C686.00,396.31 684.58,399.95 682.85,403.87 ZM 625.86 403.52 L 622.72 411.00 L 598.86 411.00 C585.74,411.00 575.00,410.80 575.00,410.56 C575.00,410.31 576.55,406.71 578.44,402.56 L 581.89 395.00 L 605.44 395.00 C618.40,395.00 629.00,395.24 629.00,395.52 C629.00,395.81 627.59,399.41 625.86,403.52 ZM 589.70 336.00 L 586.50 342.50 L 563.25 342.77 C543.67,342.99 540.00,342.81 540.00,341.61 C540.00,340.83 541.33,337.22 542.96,333.59 L 545.92 327.00 L 569.46 327.00 C587.65,327.00 592.99,327.28 592.95,328.25 C592.92,328.94 591.46,332.42 589.70,336.00 ZM 159.74 446.72 C157.36,451.08 155.13,452.15 151.92,450.47 C147.58,448.19 145.50,441.89 145.51,431.03 C145.52,423.86 145.95,420.70 147.27,418.28 C150.95,411.51 155.82,412.06 159.60,419.68 C162.24,424.99 162.33,441.99 159.74,446.72 ZM 94.73 432.29 C92.50,435.69 91.50,435.69 89.27,432.29 C86.65,428.28 86.70,412.42 89.35,410.49 C90.36,409.74 91.78,409.36 92.51,409.64 C96.48,411.17 98.06,427.21 94.73,432.29 ZM 314.00 435.19 C314.00,435.64 317.84,436.00 322.53,436.00 C330.47,436.00 331.12,435.84 331.90,433.75 C332.72,431.55 332.57,431.49 324.64,431.21 C317.88,430.96 316.33,431.20 315.27,432.65 C314.57,433.60 314.00,434.75 314.00,435.19 ZM 111.44 448.63 C113.88,453.79 115.71,458.00 115.50,458.00 C114.34,458.00 107.35,445.67 104.98,439.44 C104.25,437.54 104.37,437.00 105.52,437.00 C106.34,437.00 107.00,437.51 107.00,438.13 C107.00,438.76 109.00,443.48 111.44,448.63 Z" fill="rgb(16,16,16)"/>
<path d="M 214.50 445.50 C190.03,447.01 178.03,447.17 170.00,446.10 L 165.50 445.50 L 164.84 436.81 C163.58,420.26 159.15,411.00 152.50,411.00 C145.57,411.00 141.12,421.66 142.39,435.24 C142.90,440.80 142.75,442.00 141.55,442.00 C139.22,442.00 99.66,434.00 99.07,433.41 C98.78,433.12 98.28,428.52 97.96,423.19 C97.63,417.86 96.86,412.29 96.23,410.81 C94.72,407.24 91.63,405.59 89.03,406.98 C87.15,407.99 84.12,415.94 83.90,420.43 C83.64,425.79 82.19,416.90 82.10,409.40 C81.92,394.55 84.09,391.62 101.64,383.09 C119.08,374.61 121.84,373.91 140.50,373.31 C161.87,372.61 172.72,373.89 181.34,378.15 C185.00,379.95 188.00,381.78 188.00,382.21 C188.00,383.47 186.67,383.15 181.94,380.75 C177.91,378.72 175.80,378.48 159.25,378.18 C143.16,377.88 140.92,378.03 140.38,379.46 C139.51,381.71 148.38,394.81 151.60,396.04 C154.61,397.18 204.00,397.35 204.00,396.21 C204.00,395.35 195.86,389.06 192.25,387.13 C189.91,385.88 189.21,384.00 191.07,384.00 C191.67,384.00 195.34,386.06 199.24,388.59 C207.90,394.19 208.20,394.30 222.03,397.42 C233.61,400.03 244.00,404.09 244.00,406.00 C244.00,406.61 242.88,408.76 241.50,410.79 C240.12,412.81 239.00,415.03 239.00,415.71 C239.00,417.81 243.66,418.31 247.12,416.59 C248.88,415.71 250.58,415.25 250.90,415.57 C251.88,416.55 251.00,440.30 249.94,441.57 C248.63,443.15 243.36,443.73 214.50,445.50 ZM 232.34 390.75 C233.88,395.97 233.88,396.00 231.70,395.89 C224.89,395.54 209.63,391.06 204.78,388.00 C180.59,372.68 173.47,370.00 157.04,370.00 C149.06,370.00 147.00,369.71 147.00,368.59 C147.00,366.97 158.15,351.39 161.20,348.75 C162.31,347.79 164.77,347.00 166.67,347.00 C169.45,347.00 171.17,348.00 175.56,352.15 C180.99,357.28 182.11,359.45 179.75,360.27 C178.86,360.58 179.07,361.36 180.50,362.99 C182.79,365.61 186.88,367.52 193.28,368.95 C195.73,369.50 198.98,370.42 200.50,371.00 C203.23,372.04 203.24,372.07 201.38,374.19 C199.53,376.30 199.53,376.33 201.50,375.53 C206.21,373.62 208.84,373.82 212.60,376.37 C214.68,377.79 216.60,378.73 216.86,378.47 C217.12,378.21 214.11,374.67 210.17,370.61 C206.23,366.54 203.00,362.81 203.00,362.31 C203.00,360.86 205.25,359.00 207.00,359.00 C209.22,359.00 219.38,368.25 223.93,374.40 C228.67,380.83 230.39,384.16 232.34,390.75 ZM 108.33 394.50 C111.73,395.24 116.64,395.88 119.25,395.92 C123.27,395.99 124.00,395.71 124.00,394.11 C124.00,390.14 132.72,389.74 137.18,393.50 C143.24,398.60 143.57,396.00 137.98,387.20 C132.55,378.63 129.35,377.25 119.90,379.39 C112.35,381.09 102.49,385.69 99.67,388.81 C97.88,390.79 97.89,390.87 100.00,392.00 C101.19,392.64 104.94,393.76 108.33,394.50 ZM 193.14 353.03 C189.76,355.85 184.29,355.58 179.78,352.37 C176.69,350.17 175.90,348.84 174.94,344.19 C173.93,339.33 174.02,338.06 175.67,334.07 C177.24,330.26 178.23,329.26 181.64,328.08 C185.35,326.79 186.24,326.84 191.08,328.58 C194.85,329.93 197.10,331.50 198.71,333.90 C201.11,337.46 201.78,342.00 199.90,342.00 C199.29,342.00 194.98,340.21 190.32,338.03 L 181.85 334.06 L 182.55 337.28 C182.93,339.05 183.86,341.71 184.62,343.20 C186.16,346.21 191.93,350.98 194.09,351.03 C194.99,351.05 194.65,351.77 193.14,353.03 ZM 181.41 421.06 C188.83,422.83 202.72,420.55 203.72,417.39 C204.46,415.05 188.40,409.89 176.77,408.72 C170.18,408.06 169.20,409.60 172.93,414.75 C176.30,419.40 177.17,420.04 181.41,421.06 Z" fill="rgb(42,76,213)"/>
<path d="M 82.11 406.17 C82.09,407.18 82.09,408.26 82.10,409.40 C82.19,416.90 83.64,425.79 83.90,420.43 C84.01,418.07 84.91,414.74 86.01,411.98 C85.35,414.45 85.00,417.70 85.00,421.65 C85.00,425.69 84.61,429.00 84.14,429.00 C82.55,429.00 81.70,415.71 82.11,406.17 ZM 93.61 387.24 C86.70,391.17 83.81,394.34 82.70,399.73 C82.83,399.01 82.97,398.39 83.14,397.90 C84.54,393.70 86.95,391.01 93.61,387.24 ZM 95.00 408.72 C95.48,409.31 95.89,410.01 96.23,410.81 C96.47,411.38 96.74,412.56 96.99,414.10 C96.51,411.60 95.88,409.90 95.00,408.72 Z" fill="rgb(119,119,119)"/>

</g>
</svg>